<svg width="93" height="32" viewBox="0 0 93 32" fill="none" xmlns="http://www.w3.org/2000/svg">
<rect width="93" height="32" rx="16" fill="#FBEDE9"/>
<path d="M37.3113 10.8784L33.1216 6.68969C32.9823 6.55037 32.8169 6.43985 32.6349 6.36444C32.4529 6.28904 32.2578 6.25023 32.0608 6.25023C31.8638 6.25023 31.6687 6.28904 31.4867 6.36444C31.3047 6.43985 31.1393 6.55037 31 6.68969L19.4397 18.25C19.2998 18.3888 19.1889 18.554 19.1134 18.736C19.0379 18.918 18.9994 19.1133 19 19.3103V23.5C19 23.8978 19.158 24.2794 19.4393 24.5607C19.7207 24.842 20.1022 25 20.5 25H36.25C36.4489 25 36.6397 24.921 36.7803 24.7803C36.921 24.6397 37 24.4489 37 24.25C37 24.0511 36.921 23.8603 36.7803 23.7197C36.6397 23.579 36.4489 23.5 36.25 23.5H26.8113L37.3113 13C37.4506 12.8607 37.5611 12.6953 37.6365 12.5133C37.7119 12.3313 37.7507 12.1362 37.7507 11.9392C37.7507 11.7422 37.7119 11.5471 37.6365 11.3651C37.5611 11.1831 37.4506 11.0177 37.3113 10.8784ZM24.6897 23.5H20.5V19.3103L28.75 11.0603L32.9397 15.25L24.6897 23.5ZM34 14.1897L29.8113 10L32.0613 7.75L36.25 11.9397L34 14.1897Z" fill="#FF6002"/>
<path d="M50.52 15.582H55.7V16.464H50.52V15.582ZM50.632 20.104H56.526V21H49.596V11.2H56.316V12.096H50.632V20.104ZM61.5679 21.07C60.8679 21.07 60.2379 20.9113 59.6779 20.594C59.1272 20.2767 58.6932 19.838 58.3759 19.278C58.0585 18.7087 57.8999 18.0553 57.8999 17.318C57.8999 16.5713 58.0585 15.918 58.3759 15.358C58.6932 14.798 59.1272 14.364 59.6779 14.056C60.2379 13.7387 60.8679 13.58 61.5679 13.58C62.2119 13.58 62.7859 13.7247 63.2899 14.014C63.8032 14.3033 64.2092 14.728 64.5079 15.288C64.8159 15.8387 64.9699 16.5153 64.9699 17.318C64.9699 18.1113 64.8205 18.788 64.5219 19.348C64.2232 19.908 63.8172 20.3373 63.3039 20.636C62.7999 20.9253 62.2212 21.07 61.5679 21.07ZM61.6379 20.188C62.1605 20.188 62.6272 20.0713 63.0379 19.838C63.4579 19.5953 63.7845 19.2593 64.0179 18.83C64.2605 18.3913 64.3819 17.8873 64.3819 17.318C64.3819 16.7393 64.2605 16.2353 64.0179 15.806C63.7845 15.3767 63.4579 15.0453 63.0379 14.812C62.6272 14.5693 62.1605 14.448 61.6379 14.448C61.1245 14.448 60.6625 14.5693 60.2519 14.812C59.8412 15.0453 59.5145 15.3767 59.2719 15.806C59.0292 16.2353 58.9079 16.7393 58.9079 17.318C58.9079 17.8873 59.0292 18.3913 59.2719 18.83C59.5145 19.2593 59.8412 19.5953 60.2519 19.838C60.6625 20.0713 61.1245 20.188 61.6379 20.188ZM64.4099 21V18.788L64.5079 17.304L64.3679 15.82V10.612H65.3619V21H64.4099ZM68.1301 21V13.65H69.1241V21H68.1301ZM68.6341 12.026C68.4288 12.026 68.2561 11.956 68.1161 11.816C67.9761 11.676 67.9061 11.508 67.9061 11.312C67.9061 11.116 67.9761 10.9527 68.1161 10.822C68.2561 10.682 68.4288 10.612 68.6341 10.612C68.8395 10.612 69.0121 10.6773 69.1521 10.808C69.2921 10.9387 69.3621 11.102 69.3621 11.298C69.3621 11.5033 69.2921 11.676 69.1521 11.816C69.0215 11.956 68.8488 12.026 68.6341 12.026ZM74.2139 21.07C73.5232 21.07 72.9912 20.8833 72.6179 20.51C72.2446 20.1367 72.0579 19.6093 72.0579 18.928V12.026H73.0519V18.872C73.0519 19.3013 73.1592 19.6327 73.3739 19.866C73.5979 20.0993 73.9152 20.216 74.3259 20.216C74.7646 20.216 75.1286 20.09 75.4179 19.838L75.7679 20.552C75.5719 20.7293 75.3339 20.86 75.0539 20.944C74.7832 21.028 74.5032 21.07 74.2139 21.07ZM70.7419 14.476V13.65H75.2919V14.476H70.7419Z" fill="#FF6002"/>
</svg>
